<svg xmlns="http://www.w3.org/2000/svg" xmlns:xlink="http://www.w3.org/1999/xlink" width="100.0" height="100.0" viewBox="34.1639106309833 140.74118017840516 0.10799999999998988 0.10800000000000409" preserveAspectRatio="xMinYMin meet"><g transform="matrix(1,0,0,-1,0,281.5903603568103)"><path fill-rule="evenodd" fill="#66cc99" stroke="#555555" stroke-width="0.002160000000000082" opacity="0.6" d="M 34.267910630983295,140.79518017840516 L 34.267669867316904,140.79027932138868 L 34.26694989500346,140.78542566230436 L 34.26575764776991,140.78066594454245 L 34.264104607608864,140.7760460067869 L 34.262006694200714,140.77161034156387 L 34.259484111598425,140.76740166675418 L 34.25656115365143,140.763460514197 L 34.25326597004263,140.75982483934584 L 34.24963029519148,140.756529655737 L 34.245689142634276,140.75360669779005 L 34.241480467824594,140.75108411518775 L 34.23704480260155,140.7489862017796 L 34.232424864846024,140.74733316161854 L 34.2276651470841,140.746140914385 L 34.22281148799978,140.74542094207155 L 34.2179106309833,140.74518017840515 L 34.21300977396682,140.74542094207155 L 34.20815611488249,140.746140914385 L 34.20339639712058,140.74733316161854 L 34.19877645936504,140.7489862017796 L 34.194340794142,140.75108411518775 L 34.19013211933232,140.75360669779005 L 34.186190966775115,140.756529655737 L 34.18255529192397,140.75982483934584 L 34.17926010831516,140.763460514197 L 34.17633715036817,140.76740166675418 L 34.17381456776588,140.77161034156387 L 34.17171665435773,140.7760460067869 L 34.170063614196685,140.78066594454245 L 34.16887136696314,140.78542566230436 L 34.16815139464969,140.79027932138868 L 34.1679106309833,140.79518017840516 L 34.16815139464969,140.80008103542164 L 34.16887136696314,140.80493469450596 L 34.170063614196685,140.80969441226787 L 34.17171665435773,140.8143143500234 L 34.17381456776588,140.81875001524645 L 34.17633715036817,140.82295869005614 L 34.17926010831516,140.82689984261333 L 34.18255529192397,140.83053551746448 L 34.186190966775115,140.8338307010733 L 34.19013211933232,140.83675365902027 L 34.194340794142,140.83927624162257 L 34.19877645936504,140.84137415503073 L 34.20339639712057,140.84302719519178 L 34.20815611488249,140.84421944242533 L 34.21300977396682,140.84493941473877 L 34.2179106309833,140.84518017840517 L 34.22281148799978,140.84493941473877 L 34.2276651470841,140.84421944242533 L 34.23242486484602,140.84302719519178 L 34.23704480260155,140.84137415503073 L 34.241480467824594,140.83927624162257 L 34.245689142634276,140.83675365902027 L 34.24963029519148,140.8338307010733 L 34.25326597004263,140.83053551746448 L 34.25656115365143,140.82689984261333 L 34.259484111598425,140.82295869005614 L 34.262006694200714,140.81875001524645 L 34.264104607608864,140.8143143500234 L 34.26575764776991,140.80969441226787 L 34.26694989500346,140.80493469450596 L 34.267669867316904,140.80008103542164 L 34.267910630983295,140.79518017840516 z" /></g></svg>